<svg xmlns="http://www.w3.org/2000/svg" width="50" height="50" viewBox="0 0 50 50" role="img" aria-labelledby="title desc">
  <title id="title">Children Products</title>
  <desc id="desc">50 by 50 pixel thematic line icon for Children Products.</desc>
  <circle cx="25" cy="25" r="24" fill="#e8ecf5"/>
  <g fill="none" stroke="#092043" stroke-width="2" stroke-linecap="round" stroke-linejoin="round">
    <path d="M19 17l4 3h4l4-3 4 4-3 4v11a2 2 0 0 1-2 2h-3v-8h-4v8h-3a2 2 0 0 1-2-2V25l-3-4 4-4z"/>
    <path d="M23 20v4"/>
    <path d="M27 20v4"/>
    <path d="M21 17c1-2 3-3 4-3s3 1 4 3"/>
    <path d="M23 28h4"/>
  </g>
</svg>
