<svg xmlns="http://www.w3.org/2000/svg" width="50" height="50" viewBox="0 0 50 50" role="img" aria-labelledby="title desc">
  <title id="title">Meat</title>
  <desc id="desc">50 by 50 pixel thematic line icon for Meat.</desc>
  <circle cx="25" cy="25" r="24" fill="#e8ecf5"/>
  <g fill="none" stroke="#092043" stroke-width="2" stroke-linecap="round" stroke-linejoin="round">
    <path d="M17 15c2 2 4 2 6 0s4-2 6 0 4 2 6 0 4-2 6 0v20c-2-2-4-2-6 0s-4 2-6 0-4-2-6 0-4 2-6 0V15z"/>
    <path d="M23 18c2 2 2 4 0 6s-2 4 0 6"/>
    <path d="M29 18c2 2 2 4 0 6s-2 4 0 6"/>
    <path d="M35 18c2 2 2 4 0 6s-2 4 0 6"/>
  </g>
</svg>
