<svg xmlns="http://www.w3.org/2000/svg" width="50" height="50" viewBox="0 0 50 50" role="img" aria-labelledby="title desc">
  <title id="title">Toys</title>
  <desc id="desc">50 by 50 pixel thematic line icon for Toys.</desc>
  <circle cx="25" cy="25" r="24" fill="#e8ecf5"/>
  <g fill="none" stroke="#092043" stroke-width="2" stroke-linecap="round" stroke-linejoin="round">
    <circle cx="20" cy="19" r="3"/>
    <circle cx="30" cy="19" r="3"/>
    <path d="M18 24c0-5 3-8 7-8s7 3 7 8-3 8-7 8-7-3-7-8z"/>
    <path d="M20 38c1-4 3-6 5-6s4 2 5 6"/>
    <path d="M19 31l-4 4"/>
    <path d="M31 31l4 4"/>
    <path d="M22 39l-2-4M28 39l2-4"/>
    <path d="M22 24h.1M28 24h.1"/>
    <path d="M25 26h.1"/>
    <path d="M23 28c1 1 3 1 4 0"/>
  </g>
</svg>
